<svg xmlns="http://www.w3.org/2000/svg" viewBox="0 0 64 64" id="protest">
  <path fill="#e6ebf2" d="m42 12.473 15.035-5.472 4.788 13.156-15.035 5.472z"></path>
  <path fill="#a1bde6" d="M2 4v18a2 2 0 0 0 2 2h7v7l5-7h10a2 2 0 0 0 2-2V4a2 2 0 0 0-2-2H4a2 2 0 0 0-2 2z"></path>
  <circle cx="49" cy="45" r="4" fill="#759acc"></circle>
  <path fill="#759acc" d="M58 36v6.597c0 .908-.309 1.79-.877 2.499L54 49h-7a5 5 0 0 0-5 5v8h14v-8l4.654-6.987a8.003 8.003 0 0 0 1.342-4.431L62 36h-4z"></path>
  <circle cx="29" cy="45" r="4" fill="#759acc"></circle>
  <path fill="#759acc" d="M38 36v6.597c0 .908-.309 1.79-.877 2.499L34 49h-7a5 5 0 0 0-5 5v8h14v-8l4.654-6.987a8.003 8.003 0 0 0 1.342-4.431L42 36h-4z"></path>
  <circle cx="9" cy="45" r="4" fill="#759acc"></circle>
  <path fill="#759acc" d="M18 36v6.597c0 .908-.309 1.79-.877 2.499L14 49H7a5 5 0 0 0-5 5v8h14v-8l4.654-6.987a8.003 8.003 0 0 0 1.342-4.431L22 36h-4z"></path>
  <circle cx="15" cy="13" r="7" fill="#d6dfed"></circle>
  <path d="M62 35h-2.223l-4.19-11.511 6.578-2.394a1 1 0 0 0 .598-1.281L57.975 6.658a1 1 0 0 0-1.282-.597l-15.035 5.472a1 1 0 0 0-.598 1.281l4.789 13.156a1.007 1.007 0 0 0 1.282.597l6.578-2.394 3.965 10.893A.99.99 0 0 0 57 36v6.597c0 .679-.233 1.344-.657 1.875L53.52 48h-.545A4.954 4.954 0 0 0 54 45c0-2.757-2.243-5-5-5s-5 2.243-5 5c0 1.253.479 2.385 1.243 3.264A6.01 6.01 0 0 0 41 54v8h2v-8c0-2.206 1.794-4 4-4h7a1 1 0 0 0 .781-.375l3.124-3.904A5.024 5.024 0 0 0 59 42.597V37h2l-.003 5.581a6.968 6.968 0 0 1-1.174 3.877l-4.654 6.987A1 1 0 0 0 55 54v8h2v-7.697l4.487-6.736a8.966 8.966 0 0 0 1.509-4.985L63 36c0-.265-.105-.52-.292-.708A1.005 1.005 0 0 0 62 35zM47.386 24.346 43.282 13.07l13.156-4.788 4.104 11.276-13.156 4.788zM49 48c-1.654 0-3-1.346-3-3s1.346-3 3-3 3 1.346 3 3-1.346 3-3 3z"></path>
  <path d="M29 40c-2.757 0-5 2.243-5 5 0 1.253.479 2.385 1.243 3.264A6.01 6.01 0 0 0 21 54v8h2v-8c0-2.206 1.794-4 4-4h7a1 1 0 0 0 .781-.375l3.124-3.904A5.024 5.024 0 0 0 39 42.597V37h2l-.003 5.581a6.968 6.968 0 0 1-1.174 3.877l-4.654 6.987A1 1 0 0 0 35 54v8h2v-7.697l4.487-6.736a8.966 8.966 0 0 0 1.509-4.985L43 36c0-.265-.105-.52-.292-.708A1.005 1.005 0 0 0 42 35h-4a1 1 0 0 0-1 1v6.597c0 .679-.233 1.344-.657 1.875L33.52 48h-.545A4.954 4.954 0 0 0 34 45c0-2.757-2.243-5-5-5zm0 8c-1.654 0-3-1.346-3-3s1.346-3 3-3 3 1.346 3 3-1.346 3-3 3zM3 54c0-2.206 1.794-4 4-4h7a1 1 0 0 0 .781-.375l3.124-3.904A5.024 5.024 0 0 0 19 42.597V37h2l-.003 5.581a6.968 6.968 0 0 1-1.174 3.877l-4.654 6.987A1 1 0 0 0 15 54v8h2v-7.697l4.487-6.736a8.966 8.966 0 0 0 1.509-4.985L23 36c0-.265-.105-.52-.292-.708A1.005 1.005 0 0 0 22 35h-4a1 1 0 0 0-1 1v6.597c0 .679-.233 1.344-.657 1.875L13.52 48h-.545A4.954 4.954 0 0 0 14 45c0-2.757-2.243-5-5-5s-5 2.243-5 5c0 1.253.479 2.385 1.243 3.264A6.01 6.01 0 0 0 1 54v8h2v-8zm6-12c1.654 0 3 1.346 3 3s-1.346 3-3 3-3-1.346-3-3 1.346-3 3-3zM53.241 15.83l1.69-3.625-1.812-.845-1.691 3.625-3.625-1.691-.845 1.813 3.625 1.691-1.69 3.625 1.812.845 1.69-3.625 3.626 1.69.845-1.812zM30.5 37h2c0-.334.088-.451.3-.734.278-.372.7-.934.7-1.934s-.421-1.562-.7-1.934c-.212-.283-.3-.401-.3-.735 0-.332.088-.449.3-.731.279-.371.7-.932.7-1.932h-2c0 .333-.088.449-.3.731-.279.372-.7.933-.7 1.932 0 1 .421 1.562.7 1.934.212.283.3.4.3.734s-.088.451-.3.734c-.279.373-.7.935-.7 1.935zm-5 0h2c0-.334.088-.451.3-.734.278-.372.7-.934.7-1.934s-.421-1.562-.7-1.934c-.212-.283-.3-.401-.3-.735 0-.332.088-.449.3-.731.279-.371.7-.932.7-1.932h-2c0 .333-.088.449-.3.731-.279.372-.7.933-.7 1.932 0 1 .421 1.562.7 1.934.212.283.3.4.3.734s-.088.451-.3.734c-.279.373-.7.935-.7 1.935zM4 25h6v6a.999.999 0 0 0 1.814.581L16.515 25H26c1.654 0 3-1.346 3-3V4c0-1.654-1.346-3-3-3H4C2.346 1 1 2.346 1 4v18c0 1.654 1.346 3 3 3zM3 4c0-.551.449-1 1-1h22c.551 0 1 .449 1 1v18c0 .551-.449 1-1 1H16a1 1 0 0 0-.814.419L12 27.879V24a1 1 0 0 0-1-1H4c-.551 0-1-.449-1-1V4z"></path>
  <path d="M15 21a7.948 7.948 0 0 0 5.657-2.343C22.168 17.146 23 15.137 23 13s-.832-4.146-2.343-5.657C19.146 5.832 17.137 5 15 5s-4.146.832-5.657 2.343C7.832 8.854 7 10.863 7 13s.832 4.146 2.343 5.657A7.948 7.948 0 0 0 15 21zm6-8c0 1.603-.624 3.109-1.757 4.243S16.603 19 15 19a5.948 5.948 0 0 1-3.473-1.113l8.36-8.36A5.948 5.948 0 0 1 21 13zM10.757 8.757A5.963 5.963 0 0 1 15 7c1.264 0 2.465.393 3.473 1.113l-8.36 8.36A5.948 5.948 0 0 1 9 13c0-1.603.624-3.109 1.757-4.243z"></path>
</svg>
